{"title":"Tron.Legacy.2010.TS.H264.Feel-Free","uid":6058445,"size":975941267,"categoryP":"video","categoryS":"movies","magnet":"?xt=urn:btih:7d6d3524acb39b15fa6591322763bf23ec43d216&amp;dn=Tron.Legacy.2010.TS.H264.Feel-Free&amp;tr=udp%3A%2F%2Ftracker.openbittorrent.com%3A80&amp;tr=udp%3A%2F%2Fopen.demonii.com%3A1337&amp;tr=udp%3A%2F%2Ftracker.coppersurfer.tk%3A6969&amp;tr=udp%3A%2F%2Fexodus.desync.com%3A6969","seeders":0,"leechers":0,"uploader":"hiest","files":9,"time":1293011964,"description":"Genre:Action | Adventure | Sci-Fi \nLanguage:English\nIMDb:http://www.imdb.com/title/tt1104001/\nSource:IMAGINE Thx.\nSubtitles:Romana\n\n\nFormat : MPEG-4\nFormat profile : Base Media\nCodec ID : isom\nFile size : 930 MiB\nDuration : 1h 57mn\n\n\nVideo\nCodec ID/Info : Advanced Video Coding\nDuration : 1h 57mn\nBit rate mode : Variable\nBit rate : 938 Kbps\nWidth : 720 pixels\nHeight : 304 pixels\nDisplay aspect ratio : 2.35:1\nFrame rate mode : Constant\nFrame rate : 23.976 fps\nOriginal frame rate : 23.000 fps\nColor space : YUV\nChroma subsampling : 4:2:0\nBit depth : 8 bits\nScan type : Progressive\nBits/(Pixel*Frame) : 0.179\nStream size : 789 MiB (85%)\n\n\nAudio\nID : 1\nFormat : AAC\nFormat/Info : Advanced Audio Codec\nFormat version : Version 4\nFormat profile : LC\nCodec ID : 40\nDuration : 1h 57mn\nBit rate mode : Constant\nBit rate : 160 Kbps\nChannel(s) : 2 channels\nChannel positions : Front: L R\nSampling rate : 48.0 KHz\nStream size : 135 MiB (14%)\nLanguage : English\n\n\nPlot:\nA virtual-world worker looks to take down the Master Control Program","torrent":{"xt":"urn:btih:7d6d3524acb39b15fa6591322763bf23ec43d216","amp;dn":"Tron.Legacy.2010.TS.H264.Feel-Free","amp;tr":["udp%3A%2F%2Ftracker.openbittorrent.com%3A80","udp%3A%2F%2Fopen.demonii.com%3A1337","udp%3A%2F%2Ftracker.coppersurfer.tk%3A6969","udp%3A%2F%2Fexodus.desync.com%3A6969"],"infoHash":"7d6d3524acb39b15fa6591322763bf23ec43d216","infoHashBuffer":{"type":"Buffer","data":[125,109,53,36,172,179,155,21,250,101,145,50,39,99,191,35,236,67,210,22]},"announce":[],"urlList":[]}}